<svg width="151" height="353" viewBox="0 0 151 353" fill="none" xmlns="http://www.w3.org/2000/svg">
<path d="M40.6371 -1.44886e-06C31.784 4.15882 26.2901 4.91746 24.5418 7.88634C18.0317 18.9423 11.0495 30.2024 7.3388 42.3341C-2.67558 75.0749 -1.48498 108.453 5.18475 141.803C16.5294 198.533 42.3919 248.724 74.1578 296.301C77.5501 301.382 80.6823 306.638 83.8367 311.873C84.0329 312.199 83.3624 313.049 82.7077 314.535C73.3247 312.162 63.7547 309.242 53.9762 307.474C48.7815 306.535 42.9027 306.567 37.9494 308.125C34.7797 309.122 30.7156 313.684 30.6841 316.687C30.642 320.682 33.4531 325.332 36.3402 328.518C38.3388 330.723 42.4787 331.154 45.7595 331.996C71.4504 338.585 97.0493 345.591 122.907 351.451C145.075 356.475 152.171 349.476 150.847 327.53C149.491 305.07 149.336 282.539 148.376 260.052C148.079 253.094 146.869 246.176 145.973 238.332C133.92 243.716 125.766 269.494 121.512 315.667C94.7471 285.857 76.8306 253.353 60.1499 220.183C43.456 186.987 32.3128 151.912 26.5289 115.056C20.5944 77.2383 28.0175 40.8522 40.6371 -1.44886e-06Z" fill="white"/>
</svg>
